<?xml version="1.0" standalone="no"?><!DOCTYPE svg PUBLIC "-//W3C//DTD SVG 1.1//EN" "http://www.w3.org/Graphics/SVG/1.1/DTD/svg11.dtd"><svg t="1601260064247" class="icon" viewBox="0 0 1024 1024" version="1.1" xmlns="http://www.w3.org/2000/svg" p-id="4063" xmlns:xlink="http://www.w3.org/1999/xlink" width="200" height="200"><defs><style type="text/css"></style></defs><path d="M610.44 314.67c-0.13-7.76-7.23-13.51-14.84-12.02-31.05 6.04-67.31 12.38-108.8 19.02-6.05 0.97-10.51 6.19-10.51 12.32v94.18c0 6.89 5.58 12.47 12.47 12.47h113.73c7.19 0 12.9-6.06 12.45-13.23-2.4-38.02-3.9-75.6-4.5-112.74z" p-id="4064" fill="#0e932e"></path><path d="M879.71 64.4H144.96c-44.53 0-80.63 36.1-80.63 80.63v734.75c0 44.53 36.1 80.63 80.63 80.63h734.75c44.53 0 80.63-36.1 80.63-80.63V145.02c-0.01-44.52-36.1-80.62-80.63-80.62zM338.16 366.84v453.49c0 6.89-5.58 12.47-12.47 12.47h-38.91c-6.89 0-12.47-5.58-12.47-12.47V495.2c0-11.63-14.53-16.94-22-8.04a1114.55 1114.55 0 0 1-28.33 32.46c-6.52 7.18-18.39 4.48-21.18-4.81l-12.57-41.89c-1.22-4.07-0.3-8.5 2.48-11.71 64.3-74.25 112.96-160.68 146-259.3 2.36-7.04 10.34-10.43 17.07-7.3l36.88 17.15c5.76 2.68 8.6 9.26 6.57 15.28-15.42 45.73-35.25 90.3-59.47 133.72-1.05 1.86-1.6 3.95-1.6 6.08z m327.92 435.8l-28.57 20.12c-6.02 4.24-14.36 2.36-18.02-4.03-18.34-32.05-41.39-67.23-69.15-105.56-4.07-5.62-2.75-13.47 2.91-17.48l25.12-17.78c5.43-3.84 12.92-2.75 17.02 2.48 30.65 39.15 55.39 74.35 74.21 105.62 3.36 5.61 1.82 12.86-3.52 16.63z m167.17-126.51c-13.86 97.5-34.06 146.25-60.59 146.25-23.14 0-47.2-18.51-72.19-55.53-25.92-37.01-47.2-93.7-63.86-170.05-5.4-23.26-10.06-50.63-13.96-82.1-0.77-6.24-6.09-10.91-12.37-10.91H488.75c-6.89 0-12.47 5.58-12.47 12.47v193.31c0 9.06 9.36 15.09 17.61 11.37 6.52-2.94 12.71-5.82 18.55-8.64 7.36-3.55 16.08 0.83 17.65 8.85l5.98 30.63c1.15 5.91-2.08 11.82-7.69 14-38.3 14.9-76.11 28.5-113.43 40.8-6.69 2.2-13.87-1.55-15.87-8.3l-9.96-33.63c-1.62-5.48 0.63-11.44 5.59-14.27 11.82-6.74 17.73-16.75 17.73-30.04v-436.3c0-6.15 4.48-11.38 10.55-12.32 137.4-21.42 245.93-44.69 325.59-69.81 5.25-1.65 10.96 0.3 14.07 4.84l21.46 31.36c4.72 6.9 1.46 16.4-6.51 18.93-26.44 8.4-57.98 17.2-94.64 26.42a12.49 12.49 0 0 0-9.44 12.26c0.54 46.97 2.11 91.37 4.7 133.21 0.41 6.58 5.86 11.69 12.45 11.69H807.4c6.89 0 12.47 5.58 12.47 12.47v38.22c0 6.89-5.58 12.47-12.47 12.47H698.43c-7.45 0-13.24 6.5-12.39 13.91 2.72 23.61 5.45 41.65 8.18 54.11 11.11 61.55 23.36 105.5 36.79 131.88 13.88 27.31 24.05 40.95 30.54 40.95 5.45 0 11.1-29.34 16.95-88.03 0.89-8.9 10.59-14 18.43-9.68l29.99 16.53c4.54 2.51 7.06 7.56 6.33 12.68z" p-id="4065" fill="#0e932e"></path></svg>