<?xml version="1.0" standalone="no"?><!DOCTYPE svg PUBLIC "-//W3C//DTD SVG 1.1//EN" "http://www.w3.org/Graphics/SVG/1.1/DTD/svg11.dtd"><svg class="icon" width="200px" height="200.00px" viewBox="0 0 1024 1024" version="1.1" xmlns="http://www.w3.org/2000/svg"><path fill="#333333" d="M789.333333 891.259259H605.202963c-11.757037 0-21.333333-9.576296-21.333333-21.333333V697.457778H440.13037v172.468148c0 11.757037-9.576296 21.333333-21.333333 21.333333H234.666667c-11.757037 0-21.333333-9.576296-21.333334-21.333333v-355.555556c0-11.757037 9.576296-21.333333 21.333334-21.333333s21.333333 9.576296 21.333333 21.333333V848.592593h141.463704V676.124444c0-11.757037 9.576296-21.333333 21.333333-21.333333h186.500741c11.757037 0 21.333333 9.576296 21.333333 21.333333V848.592593H768V514.37037c0-11.757037 9.576296-21.333333 21.333333-21.333333s21.333333 9.576296 21.333334 21.333333v355.555556c0 11.757037-9.576296 21.333333-21.333334 21.333333zM874.666667 536.651852c-5.404444 0-10.903704-2.085926-15.075556-6.257778L512 184.225185 164.408889 530.394074c-8.343704 8.343704-21.807407 8.248889-30.151111-0.094815-8.343704-8.343704-8.248889-21.902222 0.094815-30.151111l362.666666-361.244444c8.343704-8.248889 21.807407-8.248889 30.151111 0l362.666667 361.244444c8.343704 8.343704 8.343704 21.807407 0.094815 30.151111-4.361481 4.266667-9.765926 6.352593-15.265185 6.352593zM788.385185 365.037037c-11.757037 0-21.333333-9.576296-21.333333-21.333333V238.933333H662.281481c-11.757037 0-21.333333-9.576296-21.333333-21.333333s9.576296-21.333333 21.333333-21.333333h126.103704c11.757037 0 21.333333 9.576296 21.333334 21.333333v126.103704c0 11.757037-9.576296 21.333333-21.333334 21.333333z" /></svg>